<?xml version="1.0"?>
<svg xmlns="http://www.w3.org/2000/svg" viewBox="-63 0 512 512" width="512px" height="512px"><g><path d="m294.800781 311.859375c-.648437 0-1.308593-.070313-1.949219-.199219-.640624-.132812-1.269531-.320312-1.871093-.570312-.609375-.25-1.1875-.5625-1.726563-.917969-.550781-.363281-1.0625-.78125-1.523437-1.242187-.457031-.460938-.878907-.96875-1.238281-1.519532-.359376-.539062-.671876-1.132812-.921876-1.730468-.25-.597657-.4375-1.230469-.566406-1.871094-.132812-.636719-.203125-1.296875-.203125-1.949219 0-.660156.070313-1.308594.203125-1.960937.128906-.636719.316406-1.257813.566406-1.867188.25-.601562.5625-1.179688.921876-1.722656.359374-.546875.78125-1.058594 1.238281-1.519532.460937-.46875.972656-.878906 1.523437-1.25.539063-.359374 1.117188-.667968 1.726563-.917968.601562-.25 1.230469-.441406 1.871093-.570313 1.289063-.261719 2.621094-.261719 3.910157 0 .628906.128907 1.261719.320313 1.871093.570313.597657.25 1.179688.558594 1.71875.917968.550782.371094 1.058594.78125 1.519532 1.25.460937.460938.882812.972657 1.25 1.519532.359375.542968.671875 1.121094.921875 1.722656.25.609375.4375 1.230469.570312 1.867188.128907.652343.1875 1.300781.1875 1.960937 0 .652344-.058593 1.3125-.1875 1.949219-.132812.640625-.320312 1.273437-.582031 1.871094-.238281.601562-.550781 1.191406-.910156 1.730468-.367188.550782-.789063 1.058594-1.25 1.519532-.460938.460937-.96875.878906-1.519532 1.242187-.539062.355469-1.121093.667969-1.71875.917969-.609374.25-1.242187.4375-1.871093.570312-.648438.128906-1.308594.199219-1.960938.199219zm0 0" data-original="#000000" class="active-path" data-old_color="#000000" fill="#3948AB"/><path d="m375.144531 0h-365.144531c-5.523438 0-10 4.476562-10 10v411.667969c0 3.96875 2.34375 7.558593 5.972656 9.152343l182.574219 80.332032c1.28125.566406 2.652344.847656 4.023437.847656 1.375 0 2.746094-.28125 4.027344-.847656l182.574219-80.332032c3.628906-1.597656 5.972656-5.1875 5.972656-9.152343v-411.667969c0-5.523438-4.476562-10-10-10zm-355.144531 20h345.144531v29.277344h-345.144531zm40.171875 94.273438h20.167969v255.417968c0 3.988282 2.371094 7.59375 6.027344 9.175782l102.234374 44.242187c1.265626.550781 2.617188.824219 3.96875.824219 1.355469 0 2.707032-.273438 3.972657-.824219l102.234375-44.242187c3.65625-1.582032 6.027344-5.1875 6.027344-9.175782v-32.691406c0-5.523438-4.480469-10-10-10-5.523438 0-10 4.476562-10 10v26.121094l-92.234376 39.914062-92.230468-39.914062v-92.300782c20.296875 29.179688 54.070312 48.316407 92.230468 48.316407 61.90625 0 112.269532-50.355469 112.269532-112.246094 0-38.40625-19.394532-72.371094-48.910156-92.617187h69.046874v275.230468l-132.40625 57.296875-132.398437-57.296875zm40.167969 90.082031c1.347656-49.695313 42.203125-89.710938 92.230468-89.710938 50.878907 0 92.269532 41.382813 92.269532 92.246094s-41.390625 92.246094-92.269532 92.246094c-50.027343 0-90.882812-40.015625-92.230468-89.710938zm0-61.394531v-28.6875h28.875c-11.273438 7.734374-21.070313 17.46875-28.875 28.6875zm224.632812-48.6875h-264.800781v-24.996094h264.804687v24.996094zm40.171875 320.871093-172.574219 75.929688-172.570312-75.929688v-345.867187h20.171875v326.792968c0 3.988282 2.367187 7.59375 6.027344 9.175782l142.402343 61.628906c1.265626.546875 2.617188.820312 3.96875.820312 1.355469 0 2.707032-.273437 3.972657-.820312l142.402343-61.628906c3.660157-1.582032 6.027344-5.1875 6.027344-9.175782v-326.792968h20.171875zm0 0" data-original="#000000" class="active-path" data-old_color="#000000" fill="#3948AB"/><path d="m156.242188 272.789062c-2.082032 0-4.144532-.648437-5.878907-1.910156-2.816406-2.046875-4.367187-5.40625-4.09375-8.878906l2.769531-35.0625-22.855468-26.746094c-2.261719-2.644531-2.984375-6.277344-1.910156-9.585937 1.078124-3.308594 3.796874-5.824219 7.179687-6.632813l34.214844-8.207031 18.378906-29.996094c1.816406-2.964843 5.046875-4.773437 8.527344-4.773437s6.707031 1.808594 8.523437 4.773437l18.378906 29.996094 34.214844 8.207031c3.386719.808594 6.105469 3.324219 7.179688 6.632813 1.074218 3.308593.351562 6.941406-1.90625 9.585937l-22.855469 26.746094 2.765625 35.066406c.273438 3.46875-1.273438 6.828125-4.089844 8.875s-6.488281 2.480469-9.707031 1.148438l-32.507813-13.46875-32.503906 13.46875c-1.230468.507812-2.53125.761718-3.824218.761718zm36.328124-35.054687c1.300782 0 2.605469.253906 3.828126.761719l21.253906 8.804687-1.808594-22.925781c-.210938-2.644531.640625-5.265625 2.363281-7.28125l14.941407-17.480469-22.367188-5.363281c-2.578125-.621094-4.808594-2.238281-6.191406-4.5l-12.019532-19.613281-12.015624 19.609375c-1.382813 2.265625-3.613282 3.882812-6.195313 4.5l-22.363281 5.363281 14.9375 17.484375c1.726562 2.015625 2.578125 4.636719 2.367187 7.28125l-1.808593 22.925781 21.25-8.808593c1.226562-.503907 2.527343-.757813 3.828124-.757813zm0 0" data-original="#000000" class="active-path" data-old_color="#000000" fill="#3948AB"/></g> </svg>
