<?xml version="1.0" encoding="iso-8859-1"?>
<!-- Generator: Adobe Illustrator 19.0.0, SVG Export Plug-In . SVG Version: 6.00 Build 0)  -->
<svg fill="#3948ab" version="1.1" id="Capa_1" xmlns="http://www.w3.org/2000/svg" xmlns:xlink="http://www.w3.org/1999/xlink" x="0px" y="0px"
	 viewBox="0 0 512 512" style="enable-background:new 0 0 512 512;" xml:space="preserve">
<g>
	<g>
		<path d="M482.909,124.512H29.091C13.05,124.512,0,137.562,0,153.603v308.364c0,16.041,13.05,29.091,29.091,29.091h453.818
			c16.041,0,29.091-13.05,29.091-29.091V153.603C512,137.562,498.95,124.512,482.909,124.512z M477.091,456.148H34.909V159.421
			h442.182V456.148z"/>
	</g>
</g>
<g>
	<g>
		<path d="M186.182,179.203c-70.9,0-128.582,57.681-128.582,128.582c0,70.906,57.681,128.588,128.582,128.588
			s128.582-57.681,128.582-128.588C314.764,236.884,257.082,179.203,186.182,179.203z M186.182,401.469
			c-51.648,0-93.673-42.025-93.673-93.679c0-51.648,42.025-93.673,93.673-93.673s93.673,42.019,93.673,93.667
			C279.855,359.439,237.83,401.469,186.182,401.469z"/>
	</g>
</g>
<g>
	<g>
		<rect x="168.727" y="196.663" width="34.909" height="222.255"/>
	</g>
</g>
<g>
	<g>
		<rect x="226.909" y="212.954" width="34.909" height="189.673"/>
	</g>
</g>
<g>
	<g>
		<rect x="110.545" y="212.954" width="34.909" height="189.673"/>
	</g>
</g>
<g>
	<g>
		<path d="M436.364,222.845h-69.818c-9.641,0-17.455,7.814-17.455,17.455c0,9.641,7.814,17.455,17.455,17.455h69.818
			c9.641,0,17.455-7.814,17.455-17.455C453.818,230.659,446.004,222.845,436.364,222.845z"/>
	</g>
</g>
<g>
	<g>
		<path d="M401.455,289.172c-28.55,0-51.782,23.232-51.782,51.782c0,28.55,23.232,51.782,51.782,51.782s51.782-23.232,51.782-51.782
			C453.236,312.404,430.004,289.172,401.455,289.172z M401.455,357.821c-9.303,0-16.873-7.569-16.873-16.873
			s7.564-16.873,16.873-16.873s16.873,7.569,16.873,16.873S410.758,357.821,401.455,357.821z"/>
	</g>
</g>
<g>
	<g>
		<path d="M405.015,32.334c-3.351-9.041-13.399-13.649-22.429-10.298L103.313,125.6c-9.042,3.351-13.649,13.399-10.298,22.435
			c2.607,7.04,9.274,11.392,16.367,11.392c2.013,0,4.067-0.349,6.063-1.094L394.717,54.769
			C403.759,51.418,408.367,41.37,405.015,32.334z"/>
	</g>
</g>
<g>
</g>
<g>
</g>
<g>
</g>
<g>
</g>
<g>
</g>
<g>
</g>
<g>
</g>
<g>
</g>
<g>
</g>
<g>
</g>
<g>
</g>
<g>
</g>
<g>
</g>
<g>
</g>
<g>
</g>
</svg>
